# xmcd CD database file
#
# Track frame offsets:
#	150
#	16858
#	31094
#	49450
#	71006
#	83045
#	101248
#	115183
#	127356
#	143972
#	159256
#	179051
#	207016
#	221501
#	235655
#	256770
#	274761
#	303164
#
# Disc length: 4232 seconds
#
# Revision: 0
# Processed by: cddbd v1.5.2PL0 Copyright (c) Steve Scherf et al.
# Submitted via: CDex 1.51
#
DISCID=fe108612
DTITLE=Roomful Of Blues - (1994) Dance All Night
DYEAR=1994
DGENRE=Blues
TTITLE0=That Will Never Do
TTITLE1=Lillie Mae
TTITLE2=Come Back Baby
TTITLE3=Hey Now
TTITLE4=Walkin' Slow Behind You
TTITLE5=I'm Just Your Fool
TTITLE6=You Don't Know
TTITLE7=Up The Line
TTITLE8=Cuttin' In
TTITLE9=Mr. Dollar
TTITLE10=Memories Are Sweet
TTITLE11=Back On Front Street
TTITLE12=Hot Little Mama
TTITLE13=The Big Question
TTITLE14=New Orleans Shuffle
TTITLE15=Sufferin' Mind
TTITLE16=Caravan
TTITLE17=Loan A Helping Hand
EXTD=YEAR: 1994
EXTT0=
EXTT1=
EXTT2=
EXTT3=
EXTT4=
EXTT5=
EXTT6=
EXTT7=
EXTT8=
EXTT9=
EXTT10=
EXTT11=
EXTT12=
EXTT13=
EXTT14=
EXTT15=
EXTT16=
EXTT17=
PLAYORDER=
